<svg width="40" height="29" viewBox="0 0 40 29" fill="none" xmlns="http://www.w3.org/2000/svg">
<path d="M0.705078 5.52619C0.705078 4.11375 1.85008 2.96875 3.26252 2.96875H5.81995C7.23238 2.96875 8.37739 4.11375 8.37739 5.52619V18.3134C8.37739 19.7258 9.52239 20.8708 10.9348 20.8708H28.8369C30.2493 20.8708 31.3943 19.7258 31.3943 18.3134V5.52619C31.3943 4.11375 32.5393 2.96875 33.9518 2.96875H36.5092C37.9216 2.96875 39.0666 4.11375 39.0666 5.52619V22.1496C39.0666 25.6806 36.2041 28.5432 32.673 28.5432H7.09867C3.56759 28.5432 0.705078 25.6806 0.705078 22.1496V5.52619Z" fill="#FF9933"/>
<path d="M9.65918 4.25022C9.65918 2.13157 11.3767 0.414062 13.4953 0.414062H26.2825C28.4012 0.414062 30.1187 2.13157 30.1187 4.25022V18.3161C30.1187 19.0224 29.5462 19.5949 28.84 19.5949H10.9379C10.2317 19.5949 9.65918 19.0224 9.65918 18.3161V4.25022Z" fill="#FF9933"/>
</svg>
